PathFileType	4	(X/Y/Z)	C:\Users\°ÂÌØÂü\Desktop\20210112\bx_y_5_1801-Unnamed.trc
DataRate	CameraRate	NumFrames	NumMarkers	Units	OrigDataRate	OrigDataStartFrame	OrigNumFrames
50.00	50.00	       7	0	mm	50.00	280	       558
Frame#	Time	
		

280	5.580	-765.56104	247.28839	505.69589	-633.20557	85.90823	1427.58875	-673.70367	271.24246	887.58295	-705.26288	-56.88894	711.90070	-614.69629	205.27879	840.41461	-681.51477	72.07239	583.08148	-722.67297	238.29611	580.22821	-517.80908	-72.69403	142.99620	-667.59937	198.40405	537.08099	-685.86377	-88.58952	1552.04321	-667.49677	-70.68343	159.68318	-714.05157	73.97966	217.06860	-625.34235	-81.20172	158.05551	-770.97113	222.08279	205.17543	-882.59625	296.22037	144.63243	-673.89331	53.02315	161.03345	-603.47205	16.11367	169.11583	-561.17969	-42.11206	162.38416	-674.96228	174.37083	157.64665	-595.02692	224.98341	173.74979	-666.77850	299.72250	159.80081	-629.45978	307.90363	161.37083	-561.60107	262.70682	165.73973	-528.18274	304.13245	146.46585	-696.49835	80.97174	1852.15417	-714.33496	269.30835	1541.97742	-648.84167	-27.57047	1062.91492	-795.22247	172.02959	184.46101	-769.37177	-5.14313	206.55005	-792.60413	57.42100	175.30772				-767.44873	-36.71432	489.51999	-875.97235	-78.75332	141.32440	-709.30994	265.98010	754.37189	-709.58667	152.92082	215.37035	-725.41174	242.29437	640.23480	-707.46838	-36.10529	618.67114	-715.42377	-30.82173	569.51587	-663.92139	7.17233	521.30566				-681.20825	136.95787	582.98914	-621.06714	-21.85388	818.03235	-846.28979	87.48302	1040.47192	
281	5.600	-766.81653	247.08575	505.79099	-634.82532	87.05655	1428.56799	-672.57770	271.21039	887.31274	-704.47784	-57.73686	712.02869	-613.74432	205.42570	839.55017	-682.42792	72.41759	582.60474	-723.83356	237.97627	580.35559	-517.74506	-72.66644	143.02562	-669.44434	198.45764	537.05872	-688.15723	-87.60882	1553.12817	-667.44086	-70.65841	159.73170	-714.15717	74.15993	216.79370	-625.34241	-81.31211	158.11147	-771.18695	221.89093	205.43590	-882.52521	296.03839	144.54327	-673.99365	52.97655	161.13692	-603.40881	16.28940	168.96530	-561.02454	-42.04755	162.52681	-675.06641	174.58519	157.25406	-595.24005	224.96429	173.67131	-666.70190	299.71838	159.94794	-629.45978	307.90363	161.37083	-561.65753	262.73596	165.58763	-528.14893	304.20529	146.38045	-700.76965	80.93393	1852.50854	-718.52649	269.71631	1541.90869	-645.42834	-27.14704	1063.09082	-795.06952	172.16011	184.53856	-769.37177	-5.14313	206.55005	-792.64789	57.38545	175.52586				-767.58325	-36.51092	489.62939	-875.93195	-78.89499	141.20357	-709.38611	265.85419	753.94153	-709.78528	152.74472	215.51233	-726.59027	242.18350	640.44281	-707.02338	-35.90991	618.66138	-716.48663	-30.26203	569.26672	-664.60303	7.79317	521.10632				-683.01550	137.28734	582.74280	-619.62872	-20.67581	817.43170	-843.75629	87.78197	1039.85132	
282	5.620	-768.37689	247.05699	505.78943	-636.75012	87.66389	1429.32935	-670.91766	272.12939	887.42914	-702.99988	-56.36172	711.55902	-613.05420	205.79707	838.60016	-683.24518	73.15701	582.73108	-725.63977	237.97571	580.73077	-517.84979	-72.61588	142.89281	-670.51300	198.46376	537.53796	-690.31079	-86.78341	1554.14734	-667.44073	-70.56123	159.61893	-714.08734	74.15516	216.89114	-625.26416	-81.30795	157.89665	-771.31067	221.84019	205.31740	-882.57764	296.19299	144.67506	-674.00525	53.16107	161.08527	-603.40881	16.28940	168.96530	-561.06451	-42.04499	162.41479	-675.10516	174.45038	157.49588	-595.05170	225.06328	173.62920	-666.92719	299.57034	159.88977	-629.47845	307.85535	161.33835	-561.67285	262.72488	165.59509	-528.13824	304.11581	146.60896	-704.97589	81.01708	1852.87830	-722.44470	270.09421	1542.21216	-642.94025	-26.50973	1063.36353	-795.27722	171.93335	184.31322	-769.31946	-5.08793	206.54361	-792.71075	57.41105	175.47777				-767.93445	-36.40046	489.97113	-875.96283	-79.04760	141.00154	-709.12915	265.25964	753.56519	-710.11969	152.62537	215.80389	-728.18683	242.64101	640.76672	-706.65259	-35.96543	619.04865	-716.85138	-30.31882	569.57568	-664.78711	8.41492	520.88519				-684.41461	137.27069	582.46002	-617.65973	-19.86305	816.66504	-841.32465	87.42858	1039.78198	
283	5.640	-769.28528	247.20065	505.82230	-638.05237	88.43907	1429.97229	-670.31732	272.14560	886.67944	-702.38953	-56.52803	712.04761	-612.22089	206.51567	838.07489	-684.00092	73.55893	582.78809	-727.26160	237.52704	580.16327	-517.88153	-72.52065	142.78755	-671.94098	198.10600	537.55298	-692.37854	-86.50066	1554.84363	-667.27094	-70.51154	159.69328	-714.11523	74.37877	217.22238	-625.40649	-81.38880	157.88487	-771.36633	221.66873	205.47984	-882.67639	296.30899	144.73367	-673.81958	53.09333	161.12837	-603.28735	16.30745	169.05135	-560.89246	-41.89036	162.49541	-675.10516	174.45038	157.49588	-595.11700	224.96249	173.80418	-666.64838	299.51877	159.96976	-629.34637	307.97507	161.31508	-561.63336	262.76160	165.83818	-528.20990	304.23074	146.48262	-708.86664	81.25120	1853.07141	-725.44122	270.58612	1542.28699	-640.09167	-25.51439	1062.88599	-795.19788	172.08171	184.32903	-769.16992	-4.97400	206.46077	-792.46643	57.34531	175.31502	-678.93243	-80.25854	865.77753	-768.23157	-35.75002	489.62900	-876.13989	-79.03809	141.44435	-709.15143	265.27954	753.49982	-710.65656	152.41309	216.39713	-729.06042	242.17366	640.55225	-706.61157	-35.97544	619.06146	-716.85559	-30.10734	569.72986	-665.39758	9.25590	521.25403				-685.61292	137.09834	582.78430	-615.63910	-19.09172	816.11218	-839.22247	87.70368	1039.60339	
284	5.660	-770.65442	246.60216	505.71909	-639.20764	88.92137	1430.83643	-669.77466	272.44128	886.25842	-700.99017	-55.94291	711.88940	-611.52789	206.81203	837.27557	-684.78259	74.10067	582.60858	-728.29315	237.88348	580.34229	-518.13110	-72.79503	142.78824	-673.07776	198.64253	537.92651	-694.12433	-85.62414	1555.29907	-667.22119	-70.50076	159.74702	-714.37378	74.57492	217.47675	-625.18274	-81.50248	157.94144	-771.52448	221.64226	205.45325	-882.47778	296.06058	144.61819	-673.82385	53.13303	161.06927	-603.28198	16.23960	169.01662	-560.92041	-41.93762	162.50734	-675.10516	174.45038	157.49588	-595.28278	225.05023	173.78862	-666.74829	299.72607	159.39035	-629.48828	307.98254	161.49738	-561.71777	262.88086	165.73511	-528.18042	304.00562	146.30885	-712.88849	81.38976	1852.82788	-728.30804	270.87500	1542.14624	-637.42432	-25.25150	1062.98438	-795.22247	172.02959	184.46101	-769.31946	-5.08793	206.54361	-792.89624	57.62360	175.56636	-676.57190	-79.12435	865.08960	-768.00745	-35.37999	489.82968	-876.18549	-79.02498	141.45282	-709.57031	265.31824	753.41656	-710.52002	152.19875	216.21721	-729.82794	242.19952	640.75586	-706.09082	-36.04565	619.49554	-717.36377	-29.59221	569.45581	-666.55621	9.55108	521.37939				-686.02637	136.72084	582.90161	-614.13873	-17.89726	815.74036	-836.90070	87.58813	1039.31689	
285	5.680	-771.75574	246.74484	505.85019	-640.52734	90.14620	1431.70190	-669.04596	273.04257	885.96155	-700.13422	-55.33903	712.10931	-611.34729	207.52153	836.47363	-685.92041	74.45541	582.91431	-729.68573	238.01486	580.15778	-518.01208	-72.58288	142.71129	-674.39978	198.83186	538.07233	-695.63995	-84.92647	1555.52063	-667.39191	-70.62491	159.79912	-714.37378	74.57492	217.47675	-625.25702	-81.26567	157.92496	-771.47833	221.69073	205.54558	-882.58203	296.12552	144.56668	-674.00525	53.16107	161.08527	-603.35974	16.28312	168.99422	-560.82306	-41.89464	162.47644	-674.89050	174.49762	157.49716	-595.53613	224.95007	173.89117	-666.70343	299.77066	159.74927	-629.54474	307.95587	161.43034	-561.70239	262.88159	165.64845	-528.20941	304.15683	146.51466	-716.36859	82.08945	1853.00757	-731.08783	271.11694	1542.03650	-635.52319	-24.42205	1062.90771	-795.40192	171.93007	184.21439	-769.29559	-4.95599	206.47153	-792.60339	57.26994	175.36646	-675.10321	-78.75147	865.14703	-768.36194	-35.16503	489.93185	-875.99457	-78.94872	141.12155	-709.76697	265.63324	753.32019	-710.97192	152.37683	216.44901	-731.05853	242.61130	641.01678	-706.82642	-35.06656	619.19281	-717.66498	-29.79911	570.35339	-666.95477	9.84011	521.69513				-687.60919	137.21642	582.54041	-612.72864	-17.29194	815.54071	-835.11096	87.71785	1039.06689	
286	5.700	-772.48535	246.67671	505.64191	-641.79468	90.47315	1431.75745	-668.55750	273.66937	885.79425	-699.39667	-55.42108	712.95660	-610.47144	209.12044	835.87964	-686.99701	74.93256	582.87823	-730.90607	237.99008	580.19427	-517.99084	-72.57330	142.93927	-674.95020	198.85550	538.18469	-697.09875	-84.21299	1555.51953	-667.20563	-70.68512	159.92773	-714.37378	74.57492	217.47675	-625.25916	-81.14641	157.95612	-771.50098	221.60835	205.44780	-882.44348	296.09494	144.68474	-674.00525	53.16107	161.08527	-603.42145	16.39124	168.89066	-560.79865	-41.71769	162.66443	-675.06641	174.58519	157.25406	-595.23651	225.25566	173.79387	-666.90643	299.72546	159.39020	-629.54474	307.95587	161.43034	-561.68750	262.93494	165.60718	-528.18042	304.00562	146.30885	-719.67871	82.61730	1852.97302	-733.04071	272.17899	1542.69641	-633.43048	-23.35462	1062.81995	-795.25391	171.85327	184.26308	-769.37177	-5.14313	206.55005	-792.72198	57.28448	175.62537	-672.86151	-78.40746	865.61194	-769.42651	-35.37529	490.58105	-876.13904	-78.89705	141.10681	-709.71564	266.21100	753.01117	-710.92651	152.19852	216.38025	-731.91089	242.78851	640.95673	-708.58917	-33.72685	618.71643	-718.37000	-29.24798	570.73340	-667.69336	10.65479	521.96155				-688.23004	137.46910	582.43170	-611.61340	-16.20070	815.20715	-833.95020	87.71494	1038.75769	
